# xmcd CD database file
#
# Track frame offsets:
#	150
#	22000
#	46040
#	67760
#	91647
#	109627
#	127630
#	151587
#	180515
#	212190
#
# Disc length: 3270 seconds
#
# Revision: 4
# Processed by: cddbd v1.5.2PL0 Copyright (c) Steve Scherf et al.
# Submitted via: CDex 1.51
#
DISCID=670cc40a
DTITLE=Bo Diddley - A Man Amongst Men
DYEAR=1996
DGENRE=Rock
TTITLE0=Bo Diddley Is Crazy
TTITLE1=Can I Walk You Home
TTITLE2=Hey Baby
TTITLE3=I Can't Stand It
TTITLE4=He's Got A Key
TTITLE5=A Man Amongst Men
TTITLE6=Coatimundi
TTITLE7=That Mule
TTITLE8=Kids Don't Do It
TTITLE9=Oops! Bo Diddley
EXTD=YEAR: 1996
EXTT0=
EXTT1=
EXTT2=
EXTT3=
EXTT4=
EXTT5=
EXTT6=
EXTT7=
EXTT8=
EXTT9=
PLAYORDER=
